<svg width="23" height="20" viewBox="0 0 23 20" fill="none" xmlns="http://www.w3.org/2000/svg">
<g clip-path="url(#clip0_3223_59446)">
<path d="M9.6875 0H8.125C7.08984 0 6.25 0.839844 6.25 1.875V6.25C6.25 7.62891 7.37109 8.75 8.75 8.75H13.75C15.1289 8.75 16.25 7.62891 16.25 6.25V1.875C16.25 0.839844 15.4102 0 14.375 0H12.8125V3.125C12.8125 3.46875 12.5313 3.75 12.1875 3.75H10.3125C9.96875 3.75 9.6875 3.46875 9.6875 3.125V0ZM2.5 10C1.12109 10 0 11.1211 0 12.5V17.5C0 18.8789 1.12109 20 2.5 20H8.75C10.1289 20 11.25 18.8789 11.25 17.5V12.5C11.25 11.1211 10.1289 10 8.75 10H7.1875V13.125C7.1875 13.4688 6.90625 13.75 6.5625 13.75H4.6875C4.34375 13.75 4.0625 13.4688 4.0625 13.125V10H2.5ZM13.75 20H20C21.3789 20 22.5 18.8789 22.5 17.5V12.5C22.5 11.1211 21.3789 10 20 10H18.4375V13.125C18.4375 13.4688 18.1563 13.75 17.8125 13.75H15.9375C15.5937 13.75 15.3125 13.4688 15.3125 13.125V10H13.75C13.1641 10 12.625 10.1992 12.1992 10.5391C12.3906 10.9453 12.5 11.3984 12.5 11.875V18.125C12.5 18.6016 12.3906 19.0547 12.1992 19.4609C12.625 19.8008 13.1641 20 13.75 20Z" fill="black"/>
</g>
<defs>
<clipPath id="clip0_3223_59446">
<rect width="22.5" height="20" fill="white"/>
</clipPath>
</defs>
</svg>
