<svg width="20" height="20" viewBox="0 0 20 20" fill="none" xmlns="http://www.w3.org/2000/svg">
<g clip-path="url(#clip0_3223_59454)">
<path d="M10 0C10.207 0 10.4023 0.105469 10.5195 0.277344C11.1367 1.19531 11.9531 2.76562 12.4414 4.53516C12.7227 5.56641 12.9023 6.69141 12.8477 7.81641C13.2969 7.47266 13.7734 7.16406 14.2461 6.89453C15.8477 5.98438 17.543 5.45312 18.6289 5.23438C18.832 5.19531 19.0469 5.25781 19.1914 5.40625C19.3359 5.55469 19.4023 5.76562 19.3633 5.97266C19.1445 7.05469 18.6094 8.74219 17.6953 10.3359C17.3398 10.957 16.918 11.5742 16.4297 12.1445C17.5156 12.4023 18.4766 12.8203 19.0547 13.1406C19.2539 13.25 19.375 13.4609 19.375 13.6875C19.375 13.9141 19.25 14.125 19.0547 14.2344C18.4609 14.5625 17.457 14.9961 16.3281 15.2539C15.5391 15.4336 14.6523 15.5352 13.7812 15.4336L14.1055 16.7266C14.1641 16.9648 14.082 17.2109 13.8906 17.3672C13.6992 17.5234 13.4375 17.5469 13.2188 17.4414L10.9375 16.2969V19.0625C10.9375 19.582 10.5195 20 10 20C9.48047 20 9.0625 19.582 9.0625 19.0625V16.2969L6.77734 17.4336C6.55859 17.543 6.29688 17.5156 6.10547 17.3594C5.91406 17.2031 5.83203 16.957 5.89063 16.7188L6.21484 15.4258C5.34766 15.5273 4.45703 15.4258 3.66797 15.2461C2.53906 14.9883 1.53516 14.5586 0.941406 14.2266C0.742188 14.1172 0.621094 13.9063 0.621094 13.6797C0.621094 13.4531 0.746094 13.2422 0.941406 13.1328C1.51953 12.8125 2.48047 12.3984 3.56641 12.1367C3.08203 11.5742 2.66016 10.957 2.30469 10.3359C1.39062 8.74219 0.855469 7.05469 0.636719 5.97266C0.59375 5.76953 0.660156 5.55469 0.808594 5.40625C0.957031 5.25781 1.16797 5.19531 1.37109 5.23438C2.46094 5.44922 4.15234 5.98438 5.75391 6.89453C6.22656 7.16406 6.70313 7.46875 7.15234 7.81641C7.09766 6.69531 7.27344 5.56641 7.55859 4.53516C8.04688 2.76562 8.86328 1.19531 9.48047 0.277344C9.59766 0.105469 9.79297 0 10 0Z" fill="black"/>
</g>
<defs>
<clipPath id="clip0_3223_59454">
<rect width="20" height="20" fill="white"/>
</clipPath>
</defs>
</svg>
