<svg width="12" height="12" viewBox="0 0 12 12" fill="none" xmlns="http://www.w3.org/2000/svg">
<path fill-rule="evenodd" clip-rule="evenodd" d="M10.4636 10.8702C10.8151 11.2217 11.3849 11.2217 11.7364 10.8702C12.0879 10.5187 12.0879 9.94889 11.7364 9.59741L7.28164 5.14266L10.8879 1.5364C11.2394 1.18493 11.2394 0.615078 10.8879 0.263606C10.5364 -0.087866 9.96659 -0.087866 9.61512 0.263606L6.00885 3.86987L2.40258 0.263604C2.05111 -0.0878679 1.48126 -0.0878679 1.12979 0.263604C0.778318 0.615076 0.778318 1.18492 1.12979 1.5364L4.73606 5.14266L0.281304 9.59742C-0.0701678 9.94889 -0.0701677 10.5187 0.281304 10.8702C0.632776 11.2217 1.20262 11.2217 1.5541 10.8702L6.00885 6.41546L10.4636 10.8702Z" fill="#7A7A7A"/>
</svg>
