<svg width="25" height="20" viewBox="0 0 25 20" fill="none" xmlns="http://www.w3.org/2000/svg">
<path d="M14.2752 2.03919C13.7439 1.88606 13.1907 2.19546 13.0376 2.72675L9.03727 16.7278C8.88413 17.2591 9.19353 17.8123 9.72482 17.9654C10.2561 18.1186 10.8093 17.8092 10.9624 17.2779L14.9627 3.27679C15.1159 2.7455 14.8065 2.19233 14.2752 2.03919ZM16.7941 5.79261C16.4035 6.18327 16.4035 6.81769 16.7941 7.20835L19.585 10.0023L16.791 12.7963C16.4003 13.1869 16.4003 13.8214 16.791 14.212C17.1817 14.6027 17.8161 14.6027 18.2067 14.212L21.707 10.7117C22.0977 10.3211 22.0977 9.68667 21.707 9.29601L18.2067 5.79574C17.8161 5.40508 17.1817 5.40508 16.791 5.79574L16.7941 5.79261ZM7.209 5.79261C6.81835 5.40196 6.18392 5.40196 5.79327 5.79261L2.29299 9.29289C1.90234 9.68354 1.90234 10.318 2.29299 10.7086L5.79327 14.2089C6.18392 14.5996 6.81835 14.5996 7.209 14.2089C7.59966 13.8182 7.59966 13.1838 7.209 12.7932L4.41503 10.0023L7.209 7.20835C7.59966 6.81769 7.59966 6.18327 7.209 5.79261Z" fill="black"/>
</svg>
