<svg width="13" height="14" viewBox="0 0 13 14" fill="none" xmlns="http://www.w3.org/2000/svg">
<path d="M0.333374 11.0511V12.8865C0.333374 12.9829 0.371671 13.0754 0.43984 13.1435C0.508009 13.2117 0.600466 13.25 0.696871 13.25H2.53229C2.69347 13.25 2.85308 13.2182 3.00199 13.1566C3.15091 13.0949 3.28622 13.0045 3.40019 12.8905L11.0291 5.26153L8.32177 2.5542L0.692868 10.1831C0.578891 10.2971 0.488481 10.4324 0.426799 10.5814C0.365117 10.7303 0.333371 10.8899 0.333374 11.0511H0.333374Z" fill="#507AE5"/>
<path d="M12.2728 1.31071C12.095 1.13294 11.884 0.991931 11.6517 0.895724C11.4195 0.799517 11.1705 0.75 10.9191 0.75C10.6677 0.75 10.4188 0.799517 10.1865 0.895724C9.95428 0.991931 9.74324 1.13294 9.56548 1.31071L9.08716 1.78903L11.7945 4.49635L12.2728 4.01803C12.4506 3.84027 12.5916 3.62923 12.6878 3.39697C12.784 3.16471 12.8335 2.91577 12.8335 2.66437C12.8335 2.41297 12.784 2.16404 12.6878 1.93178C12.5916 1.69951 12.4506 1.48848 12.2728 1.31071Z" fill="#507AE5"/>
</svg>
