<svg width="18" height="20" viewBox="0 0 18 20" fill="none" xmlns="http://www.w3.org/2000/svg">
<g clip-path="url(#clip0_3223_59464)">
<path d="M9.92188 2.0625C9.73828 1.57422 9.26953 1.25 8.75 1.25C8.23047 1.25 7.76172 1.57422 7.57812 2.0625L2.25781 16.25H1.25C0.558594 16.25 0 16.8086 0 17.5C0 18.1914 0.558594 18.75 1.25 18.75H5C5.69141 18.75 6.25 18.1914 6.25 17.5C6.25 16.8086 5.69141 16.25 5 16.25H4.92969L5.63281 14.375H11.8672L12.5703 16.25H12.5C11.8086 16.25 11.25 16.8086 11.25 17.5C11.25 18.1914 11.8086 18.75 12.5 18.75H16.25C16.9414 18.75 17.5 18.1914 17.5 17.5C17.5 16.8086 16.9414 16.25 16.25 16.25H15.2422L9.92188 2.0625ZM10.9297 11.875H6.57031L8.75 6.05859L10.9297 11.875Z" fill="black"/>
</g>
<defs>
<clipPath id="clip0_3223_59464">
<rect width="17.5" height="20" fill="white"/>
</clipPath>
</defs>
</svg>
