<svg width="14" height="13" viewBox="0 0 14 13" fill="none" xmlns="http://www.w3.org/2000/svg">
<path d="M7 0.462891C3.5625 0.462891 0.75 3.27539 0.75 6.71289C0.75 10.1504 3.5625 12.9629 7 12.9629C10.4375 12.9629 13.25 10.1504 13.25 6.71289C13.25 3.27539 10.4375 0.462891 7 0.462891ZM7.70312 10.0723C7.70312 10.541 7.39062 10.8535 6.92188 10.8535C6.53125 10.8535 6.14062 10.541 6.14062 10.0723V6.94727C6.14062 6.47852 6.53125 6.16602 6.92188 6.16602C7.39062 6.16602 7.70312 6.47852 7.70312 6.94727V10.0723ZM7 4.99414C6.53125 4.99414 6.14062 4.60352 6.14062 4.13477C6.14062 3.66602 6.53125 3.27539 7 3.27539C7.46875 3.27539 7.85938 3.66602 7.85938 4.13477C7.85938 4.68164 7.46875 4.99414 7 4.99414Z" fill="#7A7A7A"/>
</svg>
