<svg width="25" height="20" viewBox="0 0 25 20" fill="none" xmlns="http://www.w3.org/2000/svg">
<path d="M3.2 4.2C3.2 2.98656 4.18656 2 5.4 2H18.6C19.8134 2 20.8 2.98656 20.8 4.2V13H18.6V4.2H5.4V13H3.2V4.2ZM1 14.76C1 14.3956 1.29563 14.1 1.66 14.1H22.34C22.7044 14.1 23 14.3956 23 14.76C23 16.2175 21.8175 17.4 20.36 17.4H3.64C2.1825 17.4 1 16.2175 1 14.76ZM10.6594 8.08438L9.59375 9.15L10.6594 10.2156C10.9825 10.5388 10.9825 11.0612 10.6594 11.3809C10.3363 11.7006 9.81375 11.7041 9.49406 11.3809L7.84406 9.73094C7.52094 9.40781 7.52094 8.88531 7.84406 8.56563L9.49406 6.91563C9.81719 6.5925 10.3397 6.5925 10.6594 6.91563C10.9791 7.23875 10.9825 7.76125 10.6594 8.08094V8.08438ZM14.5094 6.91563L16.1594 8.56563C16.4825 8.88875 16.4825 9.41125 16.1594 9.73094L14.5094 11.3809C14.1863 11.7041 13.6638 11.7041 13.3441 11.3809C13.0244 11.0578 13.0209 10.5353 13.3441 10.2156L14.4097 9.15L13.3441 8.08438C13.0209 7.76125 13.0209 7.23875 13.3441 6.91906C13.6672 6.59938 14.1897 6.59594 14.5094 6.91906V6.91563Z" fill="black"/>
</svg>
