<svg width="24" height="25" viewBox="0 0 24 25" fill="none" xmlns="http://www.w3.org/2000/svg">
<g clip-path="url(#clip0_2406_107901)">
<path d="M17.0036 9.39177V7.91013C17.0036 6.70242 16.5238 5.54417 15.6698 4.69019C14.8159 3.83621 13.6576 3.35645 12.4499 3.35645C11.2422 3.35645 10.0839 3.83621 9.22994 4.69019C8.37596 5.54417 7.8962 6.70242 7.8962 7.91013V9.39177C7.37384 9.45419 6.89246 9.70584 6.54307 10.0991C6.19367 10.4924 6.00047 11.0001 6 11.5261V17.7117C6.00115 18.2802 6.22749 18.8251 6.62947 19.227C7.03146 19.629 7.57633 19.8553 8.14481 19.8564H16.7548C17.3233 19.8553 17.8681 19.629 18.2701 19.227C18.6721 18.8251 18.8984 18.2802 18.8995 17.7117V11.5261C18.8991 11.0001 18.7059 10.4925 18.3566 10.0992C18.0072 9.70589 17.5259 9.45423 17.0036 9.39177ZM13.232 15.2458V16.7999C13.232 17.006 13.1502 17.2037 13.0044 17.3494C12.8587 17.4951 12.661 17.577 12.4549 17.577C12.2489 17.577 12.0512 17.4951 11.9055 17.3494C11.7597 17.2037 11.6779 17.006 11.6779 16.7999V15.2458C11.4413 15.1121 11.2445 14.9178 11.108 14.6829C10.9714 14.448 10.8999 14.1809 10.9008 13.9092C10.9008 13.497 11.0645 13.1017 11.356 12.8102C11.6474 12.5188 12.0428 12.355 12.4549 12.355C12.8671 12.355 13.2624 12.5188 13.5539 12.8102C13.8454 13.1017 14.0091 13.497 14.0091 13.9092C14.01 14.1809 13.9385 14.448 13.802 14.6829C13.6654 14.9179 13.4686 15.1121 13.232 15.2458ZM14.9314 9.38141H9.96841V7.91013C9.96841 7.25201 10.2299 6.62083 10.6952 6.15547C11.1606 5.6901 11.7918 5.42866 12.4499 5.42866C13.108 5.42866 13.7392 5.6901 14.2046 6.15547C14.6699 6.62083 14.9314 7.25201 14.9314 7.91013V9.38141Z" fill="#F57322"/>
</g>
<defs>
<clipPath id="clip0_2406_107901">
<rect width="24" height="24" fill="white" transform="translate(0 0.356445)"/>
</clipPath>
</defs>
</svg>
