<svg width="20" height="20" viewBox="0 0 20 20" fill="none" xmlns="http://www.w3.org/2000/svg">
<path d="M11.8562 2.48438C11.6781 2.18437 11.35 2 11 2C10.65 2 10.3219 2.18437 10.1438 2.48438L7.14375 7.48438C6.95938 7.79375 6.95312 8.17812 7.13125 8.49062C7.30937 8.80312 7.64062 8.99687 8 8.99687H14C14.3594 8.99687 14.6937 8.80312 14.8687 8.49062C15.0437 8.17812 15.0406 7.79375 14.8562 7.48438L11.8562 2.48438ZM11 11.75V16.25C11 16.9406 11.5594 17.5 12.25 17.5H16.75C17.4406 17.5 18 16.9406 18 16.25V11.75C18 11.0594 17.4406 10.5 16.75 10.5H12.25C11.5594 10.5 11 11.0594 11 11.75ZM6 18C7.06087 18 8.07828 17.5786 8.82843 16.8284C9.57857 16.0783 10 15.0609 10 14C10 12.9391 9.57857 11.9217 8.82843 11.1716C8.07828 10.4214 7.06087 10 6 10C4.93913 10 3.92172 10.4214 3.17157 11.1716C2.42143 11.9217 2 12.9391 2 14C2 15.0609 2.42143 16.0783 3.17157 16.8284C3.92172 17.5786 4.93913 18 6 18Z" fill="black"/>
</svg>
