<svg width="20" height="20" viewBox="0 0 20 20" fill="none" xmlns="http://www.w3.org/2000/svg">
<g clip-path="url(#clip0_3223_59450)">
<path d="M20 3.75C20 5.71094 17.6914 8.63672 16.6953 9.80469C16.5469 9.97656 16.3281 10.043 16.1289 10H12.5C11.8086 10 11.25 10.5586 11.25 11.25C11.25 11.9414 11.8086 12.5 12.5 12.5H16.25C18.3203 12.5 20 14.1797 20 16.25C20 18.3203 18.3203 20 16.25 20H5.45313C5.79297 19.6133 6.20703 19.1172 6.625 18.5625C6.87109 18.2344 7.125 17.875 7.36719 17.5H16.25C16.9414 17.5 17.5 16.9414 17.5 16.25C17.5 15.5586 16.9414 15 16.25 15H12.5C10.4297 15 8.75 13.3203 8.75 11.25C8.75 9.17969 10.4297 7.5 12.5 7.5H14.0547C13.2344 6.26953 12.5 4.85547 12.5 3.75C12.5 1.67969 14.1797 0 16.25 0C18.3203 0 20 1.67969 20 3.75ZM4.57422 19.1055C4.42578 19.2734 4.29297 19.4219 4.17969 19.5469L4.10937 19.625L4.10156 19.6172C3.86719 19.7969 3.53125 19.7734 3.32031 19.5469C2.33594 18.4766 0 15.7227 0 13.75C0 11.6797 1.67969 10 3.75 10C5.82031 10 7.5 11.6797 7.5 13.75C7.5 14.9219 6.67578 16.3672 5.80078 17.5742C5.38281 18.1484 4.95312 18.668 4.59766 19.0781L4.57422 19.1055ZM5 13.75C5 13.4185 4.8683 13.1005 4.63388 12.8661C4.39946 12.6317 4.08152 12.5 3.75 12.5C3.41848 12.5 3.10054 12.6317 2.86612 12.8661C2.6317 13.1005 2.5 13.4185 2.5 13.75C2.5 14.0815 2.6317 14.3995 2.86612 14.6339C3.10054 14.8683 3.41848 15 3.75 15C4.08152 15 4.39946 14.8683 4.63388 14.6339C4.8683 14.3995 5 14.0815 5 13.75ZM16.25 5C16.5815 5 16.8995 4.8683 17.1339 4.63388C17.3683 4.39946 17.5 4.08152 17.5 3.75C17.5 3.41848 17.3683 3.10054 17.1339 2.86612C16.8995 2.6317 16.5815 2.5 16.25 2.5C15.9185 2.5 15.6005 2.6317 15.3661 2.86612C15.1317 3.10054 15 3.41848 15 3.75C15 4.08152 15.1317 4.39946 15.3661 4.63388C15.6005 4.8683 15.9185 5 16.25 5Z" fill="black"/>
</g>
<defs>
<clipPath id="clip0_3223_59450">
<rect width="20" height="20" fill="white"/>
</clipPath>
</defs>
</svg>
