<svg width="24" height="25" viewBox="0 0 24 25" fill="none" xmlns="http://www.w3.org/2000/svg">
<g clip-path="url(#clip0_2709_42567)">
<path d="M17.4024 12.3586C17.4024 9.25136 14.8841 6.73307 11.7769 6.73307C11.0385 6.73307 10.3397 6.87811 9.69367 7.13301C9.34647 7.26925 8.95093 7.19015 8.68723 6.92645C8.21258 6.4518 8.37959 5.64314 9.00367 5.39263C9.86507 5.04982 10.7968 4.85645 11.7769 4.85645C15.9213 4.85645 19.279 8.21416 19.279 12.3586H20.7073C20.9139 12.3586 21.0326 12.5959 20.9051 12.7585L18.3429 16.1074L15.7762 12.7585C15.6488 12.5959 15.7674 12.3586 15.974 12.3586H17.4024Z" fill="#8C4AEF"/>
<path d="M5.65533 8.60547L8.22196 11.9544C8.34941 12.117 8.23075 12.3543 8.02419 12.3543H6.59584C6.59584 15.4615 9.11413 17.9798 12.2213 17.9798C12.9597 17.9798 13.6585 17.8348 14.3045 17.5799C14.6517 17.4436 15.0473 17.5228 15.311 17.7864C15.7856 18.2611 15.6186 19.0698 14.9945 19.3203C14.1375 19.6631 13.2014 19.8565 12.2213 19.8565C8.07693 19.8565 4.71921 16.4987 4.71921 12.3543H3.29086C3.0843 12.3543 2.97004 12.117 3.09309 11.9544L5.65533 8.60547Z" fill="#8C4AEF"/>
</g>
<defs>
<clipPath id="clip0_2709_42567">
<rect width="24" height="24" fill="white" transform="translate(0 0.356445)"/>
</clipPath>
</defs>
</svg>
