<svg width="24" height="25" viewBox="0 0 24 25" fill="none" xmlns="http://www.w3.org/2000/svg">
<path d="M13.2297 15.2469V16.8006C13.2297 17.0066 13.1479 17.2042 13.0022 17.3499C12.8565 17.4956 12.6589 17.5774 12.4529 17.5774C12.2469 17.5774 12.0493 17.4956 11.9036 17.3499C11.7579 17.2042 11.6761 17.0066 11.6761 16.8006V15.2469C11.4395 15.1133 11.2429 14.9191 11.1064 14.6843C10.9698 14.4494 10.8983 14.1824 10.8992 13.9108C10.8992 13.7068 10.9394 13.5047 11.0175 13.3162C11.0956 13.1277 11.21 12.9565 11.3543 12.8122C11.4986 12.6679 11.6698 12.5535 11.8583 12.4754C12.0468 12.3973 12.2489 12.3571 12.4529 12.3571C12.6569 12.3571 12.859 12.3973 13.0475 12.4754C13.236 12.5535 13.4072 12.6679 13.5515 12.8122C13.6958 12.9565 13.8102 13.1277 13.8883 13.3162C13.9664 13.5047 14.0066 13.7068 14.0066 13.9108C14.0075 14.1825 13.936 14.4494 13.7995 14.6843C13.6629 14.9191 13.4663 15.1134 13.2297 15.2469ZM14.9286 9.38449H9.96713V7.91361C9.96629 7.5873 10.0298 7.26403 10.1541 6.96232C10.2784 6.6606 10.461 6.38637 10.6914 6.15534C10.9219 5.92431 11.1956 5.741 11.497 5.61594C11.7984 5.49087 12.1215 5.42649 12.4478 5.42649C12.7742 5.42649 13.0973 5.49087 13.3987 5.61594C13.7 5.741 13.9738 5.92431 14.2042 6.15534C14.4347 6.38637 14.6173 6.6606 14.7416 6.96232C14.8659 7.26403 14.9294 7.5873 14.9286 7.91361C14.9286 7.91361 16.9884 7.92534 17.0001 7.91361C17.0001 6.70627 16.5205 5.54838 15.6668 4.69466C14.8131 3.84094 13.6552 3.36133 12.4479 3.36133C11.2405 3.36133 10.0826 3.84094 9.2289 4.69466C8.37518 5.54838 7.89557 6.70627 7.89557 7.91361V9.39478C7.37339 9.45719 6.89216 9.70876 6.54288 10.1019C6.1936 10.4951 6.00047 11.0026 6 11.5285V17.7121C6.00115 18.2804 6.22742 18.8251 6.62929 19.227C7.03115 19.6288 7.57587 19.8551 8.14418 19.8562H16.7514C17.3197 19.8551 17.8644 19.6288 18.2662 19.227C18.6681 18.8251 18.8943 18.2804 18.8954 17.7121V11.5285C18.895 11.0026 18.7019 10.4951 18.3527 10.102C18.0034 9.70881 17.5223 9.45723 17.0001 9.39478L14.9286 9.38449Z" fill="#F57322"/>
</svg>
